<svg version="1.1" xmlns="http://www.w3.org/2000/svg" xmlns:xlink="http://www.w3.org/1999/xlink" width="108.43519" height="79.77389" viewBox="0,0,108.43519,79.77389"><g transform="translate(-182.48249,-139.42784)"><g data-paper-data="{&quot;isPaintingLayer&quot;:true}" fill-rule="evenodd" stroke="none" stroke-width="1" stroke-linecap="butt" stroke-linejoin="miter" stroke-miterlimit="10" stroke-dasharray="" stroke-dashoffset="0" style="mix-blend-mode: normal"><g><g><path d="M248.7998,209.68805c0.13922,0.88176 0.37127,2.18119 1.53147,3.10935c-0.69612,0.27845 -0.13922,1.48506 -3.80547,2.69168c0,0 -0.37127,-5.05849 0.60331,-5.70821c0,0 1.1138,-0.04641 1.6707,-0.09282z" fill="#a7b2c4"/><path d="M251.95556,212.05487c-0.88176,0.60331 -2.50604,2.59886 -2.50604,2.59886c-0.23204,-0.51049 -0.23204,-1.02098 -0.23204,-1.02098c-0.41767,0.51049 -1.02098,0.46408 -1.02098,0.46408c0.04641,-0.83535 1.02098,-1.7171 1.02098,-1.7171c-0.5569,0.32486 -1.1138,0.60331 -1.1138,0.60331c0.04641,-0.78894 0.51049,-1.34584 0.51049,-1.34584c-0.83535,-0.04641 -1.25302,0.41767 -1.25302,0.41767c0.09282,-1.39225 1.76351,-1.43865 1.76351,-1.43865c-1.02098,-0.18563 -1.90274,-0.13922 -1.90274,-0.13922c0.13922,-0.83535 1.20661,-0.5569 1.20661,-0.5569c-1.1138,-0.13922 -1.25302,-1.02098 -1.25302,-1.02098c0.37127,0.60331 2.97012,0.69612 2.97012,0.69612" fill="#dce2ef"/></g><path d="M264.34655,178.2697c0.09282,2.87731 3.06294,5.29053 -1.80992,16.01083c0,0 2.97012,7.05405 2.32041,8.95678c-0.64971,1.90274 -4.17674,4.26955 -8.58552,6.35792c-1.1138,0.5569 -5.61539,3.52702 -5.61539,3.52702l-1.53147,-3.71266c0,0 0.27845,-0.41767 2.08837,-1.80992c0,0 3.9447,-1.39225 6.49715,-4.40878c0,0 -6.35792,-8.67833 -5.33694,-10.7667c1.85633,-3.80547 -2.22759,-13.0407 -2.22759,-13.0407" fill="#dce2ef"/></g><path d="M230.83983,192.23857c-5.42976,4.36237 -9.74572,4.73364 -9.74572,4.73364c0,0 9.97776,8.53911 7.88939,13.41197c-0.64971,1.48506 -2.08837,-0.04641 -3.80547,-1.48506c-2.69168,-2.22759 0,-1.99555 -1.39225,-3.80547c-1.39225,-1.80992 -10.7667,-8.72474 -9.46727,-10.72029c2.08837,-2.73808 4.64082,-3.71266 4.64082,-5.98666c0,-5.84743 -2.13478,-20.55883 11.37001,-16.56773c8.02862,2.55245 6.03307,15.96442 0.51049,20.41961z" fill="#dce2ef"/><g><path d="M225.13162,209.45601c0.97457,0.32486 2.69168,0.88176 4.17674,1.02098c0,1.39225 -0.51049,2.92372 -0.51049,2.92372c-1.34584,-0.04641 -2.78449,-1.25302 -3.85188,-1.99555c0,0 0.23204,-0.92816 0.18563,-1.94914z" fill="#a7b2c4"/><path d="M229.12272,209.45601c0.09282,1.20661 0.92816,1.76351 0.92816,1.76351c-0.97457,0 -1.20661,-1.02098 -1.20661,-1.02098c0.32486,0.78894 -0.23204,1.48506 -0.23204,1.48506c0.18563,-0.51049 -0.46408,-1.06739 -0.46408,-1.06739c0.04641,0.5569 -0.5569,1.02098 -0.5569,1.02098c0.27845,-0.78894 -0.37127,-1.6707 -0.37127,-1.6707c-0.32486,0.27845 -0.41767,1.39225 -0.41767,1.39225c-0.51049,-0.18563 -0.51049,-1.20661 -0.51049,-1.20661c-0.41767,0.27845 -0.51049,1.06739 -0.51049,1.06739c-0.64971,-0.23204 -0.51049,-1.1138 -0.51049,-1.1138c-0.32486,0.64971 -1.02098,0.64971 -1.02098,0.64971c0.74253,-0.74253 0.60331,-2.08837 0.60331,-2.08837" fill="#dce2ef"/></g><g><path d="M219.42341,168.80243c0,0 -6.17229,0.78894 -10.30262,2.18119c-5.47617,1.85633 -9.32805,3.15576 -9.32805,3.15576c1.02098,-1.1602 1.6707,-1.57788 1.6707,-1.57788c-5.52258,2.32041 -10.11699,0.32486 -10.11699,0.32486c2.22759,0.23204 4.45519,-1.06739 4.45519,-1.06739c-4.40878,0.09282 -5.52258,0 -7.47172,-0.51049c-3.52702,-0.92816 -5.52258,-1.1602 -5.52258,-1.1602c1.85633,-1.1138 5.19772,-1.94914 5.19772,-1.94914c-1.62429,0.04641 -5.42976,0.41767 -5.42976,0.41767c4.91927,-2.13478 9.28164,-3.9447 12.90148,-4.548c4.13033,-0.64971 5.56898,-0.74253 5.56898,-0.74253c-1.39225,-0.37127 -2.8309,-0.32486 -2.8309,-0.32486c0,0 5.80102,-1.6707 9.93135,-0.46408c4.96568,1.43865 6.7756,2.59886 10.85952,4.26955" fill="#fcccba"/><path d="M218.68088,166.52843c-0.5569,-0.13922 -1.43865,-0.37127 -2.41323,-0.74253c-1.02098,-0.37127 -2.18119,-0.78894 -3.34139,-1.39225c-0.5569,-0.27845 -1.1602,-0.60331 -1.80992,-0.88176c-0.64971,-0.27845 -1.29943,-0.51049 -1.94914,-0.74253c-0.64971,-0.18563 -1.29943,-0.37127 -1.99555,-0.46408c-0.37127,-0.04641 -0.69612,-0.13922 -1.02098,-0.13922c-0.18563,0 -0.32486,-0.04641 -0.51049,-0.04641c-0.18563,0 -0.32486,0 -0.51049,0c-0.64971,0 -1.25302,0.04641 -1.85633,0.09282c-0.60331,0.04641 -1.1602,0.13922 -1.6707,0.23204c-1.02098,0.18563 -1.90274,0.32486 -2.50604,0.41767c-0.64971,0.09282 -0.97457,0.13922 -0.97457,0.13922c0,0 0.32486,-0.04641 0.92816,-0.18563c0.60331,-0.09282 1.48506,-0.32486 2.50604,-0.51049c0.51049,-0.09282 1.06739,-0.18563 1.6707,-0.27845c0.60331,-0.09282 1.25302,-0.13922 1.90274,-0.13922c0.18563,0 0.32486,0 0.51049,0c0.18563,0 0.32486,0.04641 0.51049,0.04641c0.32486,0.04641 0.69612,0.09282 1.02098,0.13922c0.69612,0.09282 1.34584,0.27845 2.04196,0.46408c0.69612,0.18563 1.34584,0.46408 1.99555,0.74253c0.60331,0.27845 1.20661,0.60331 1.80992,0.88176c0.60331,0.27845 1.1602,0.5569 1.7171,0.78894c0.5569,0.23204 1.06739,0.46408 1.57788,0.64971c0.97457,0.37127 1.76351,0.69612 2.36682,0.88176c0.60331,0.18563 0.92816,0.27845 0.92816,0.27845c0,0 -0.32486,-0.09282 -0.92816,-0.23204z" fill="#e0a0a0"/><path d="M198.07564,163.74393c-1.80992,0.27845 -4.22315,0.69612 -6.54356,1.43865c-1.1602,0.37127 -2.274,0.83535 -3.34139,1.25302c-1.06739,0.41767 -2.04196,0.83535 -2.87731,1.20661c-1.7171,0.69612 -2.8309,1.1602 -2.8309,1.1602c0,0 1.06739,-0.5569 2.73808,-1.34584c0.78894,-0.37127 1.76351,-0.83535 2.8309,-1.29943c1.06739,-0.46408 2.22759,-0.92816 3.3878,-1.29943c1.1602,-0.37127 2.36682,-0.64971 3.48061,-0.88176c1.1138,-0.23204 2.18119,-0.37127 3.10935,-0.46408c1.85633,-0.18563 3.06294,-0.18563 3.06294,-0.18563c0,0 -1.20661,0.09282 -3.01653,0.41767z" fill="#e0a0a0"/><path d="M183.54987,169.86982c0.46408,-0.23204 1.06739,-0.5569 1.6707,-0.78894c0.64971,-0.27845 1.25302,-0.46408 1.76351,-0.60331c0.51049,-0.13922 0.83535,-0.18563 0.83535,-0.18563c0,0 -0.09282,0.04641 -0.23204,0.09282c-0.13922,0.04641 -0.32486,0.13922 -0.5569,0.23204c-0.46408,0.18563 -1.06739,0.41767 -1.6707,0.69612c-0.60331,0.23204 -1.25302,0.46408 -1.7171,0.64971c-0.46408,0.18563 -0.78894,0.27845 -0.78894,0.27845c0,0 0.27845,-0.18563 0.69612,-0.37127z" fill="#e0a0a0"/><path d="M194.36298,172.14382c-0.46408,0 -0.92816,0.04641 -1.48506,0c-0.51049,-0.04641 -1.1138,-0.09282 -1.6707,-0.13922c-0.5569,-0.09282 -1.1602,-0.18563 -1.6707,-0.27845c-0.5569,-0.09282 -1.02098,-0.23204 -1.43865,-0.32486c-0.41767,-0.09282 -0.74253,-0.18563 -0.97457,-0.27845c-0.23204,-0.09282 -0.37127,-0.13922 -0.37127,-0.13922c0,0 0.5569,0.13922 1.39225,0.27845c0.41767,0.09282 0.92816,0.13922 1.43865,0.23204c0.5569,0.09282 1.1138,0.18563 1.6707,0.23204c0.5569,0.04641 1.1602,0.09282 1.6707,0.13922c0.51049,0 1.02098,0.04641 1.43865,0.04641c0.41767,0 0.78894,0 1.02098,0c0.23204,0 0.37127,0 0.37127,0c0,0 -0.60331,0.09282 -1.39225,0.23204z" fill="#e0a0a0"/><path d="M192.08898,173.30402c0.27845,0.09282 0.64971,0.13922 1.1138,0.23204c0.23204,0.04641 0.46408,0.09282 0.74253,0.09282c0.27845,0 0.5569,0.04641 0.83535,0.04641c0.32486,0 0.60331,0 0.92816,0c0.27845,0 0.60331,-0.04641 0.92816,-0.04641c0.32486,-0.04641 0.60331,-0.04641 0.92816,-0.09282c0.27845,-0.04641 0.60331,-0.09282 0.88176,-0.13922c0.27845,-0.04641 0.5569,-0.09282 0.83535,-0.13922c0.27845,-0.09282 0.51049,-0.13922 0.74253,-0.18563c0.46408,-0.09282 0.83535,-0.23204 1.1138,-0.27845c0.27845,-0.04641 0.41767,-0.09282 0.41767,-0.09282c0,0 -0.13922,0.04641 -0.41767,0.13922c-0.23204,0.09282 -0.60331,0.23204 -1.06739,0.37127c-0.23204,0.09282 -0.46408,0.13922 -0.74253,0.23204c-0.27845,0.04641 -0.5569,0.13922 -0.83535,0.18563c-0.32486,0.04641 -0.60331,0.09282 -0.92816,0.13922c-0.27845,0.04641 -0.60331,0.04641 -0.92816,0.09282c-0.32486,0 -0.64971,0 -0.97457,0c-0.32486,0 -0.64971,0 -0.92816,-0.04641c-0.32486,0 -0.60331,-0.04641 -0.88176,-0.09282c-0.23204,-0.04641 -0.51049,-0.09282 -0.74253,-0.13922c-0.46408,-0.09282 -0.83535,-0.23204 -1.1138,-0.32486c-0.27845,-0.09282 -0.41767,-0.18563 -0.41767,-0.18563c0,0 0.13922,0.09282 0.51049,0.23204z" fill="#e0a0a0"/><path d="M202.62364,173.1648c0.41767,-0.09282 0.78894,-0.23204 1.25302,-0.37127c0.41767,-0.09282 0.88176,-0.27845 1.34584,-0.46408c0.92816,-0.37127 1.94914,-0.74253 2.97012,-1.1138c1.02098,-0.32486 2.04196,-0.64971 3.01653,-0.92816c0.51049,-0.13922 0.97457,-0.27845 1.43865,-0.37127c0.46408,-0.09282 0.88176,-0.18563 1.29943,-0.23204c0.78894,-0.13922 1.48506,-0.18563 1.94914,-0.23204c0.46408,-0.04641 0.74253,-0.04641 0.74253,-0.04641c0,0 -0.27845,0.04641 -0.74253,0.09282c-0.46408,0.09282 -1.1138,0.18563 -1.90274,0.37127c-0.78894,0.18563 -1.6707,0.41767 -2.64527,0.69612c-0.97457,0.27845 -1.99555,0.64971 -3.01653,0.97457c-1.02098,0.37127 -2.04196,0.74253 -2.97012,1.1138c-0.46408,0.18563 -0.92816,0.37127 -1.39225,0.46408c-0.41767,0.09282 -0.88176,0.23204 -1.25302,0.32486c-1.53147,0.41767 -2.59886,0.64971 -2.59886,0.64971c0,0 1.02098,-0.37127 2.50604,-0.92816z" fill="#e0a0a0"/><path d="M218.12398,166.9461c-0.27845,0 -0.64971,0 -1.1602,-0.04641c-0.51049,-0.04641 -1.06739,-0.09282 -1.6707,-0.23204c-0.60331,-0.13922 -1.20661,-0.27845 -1.85633,-0.46408c-0.60331,-0.18563 -1.25302,-0.37127 -1.80992,-0.60331c-0.5569,-0.23204 -1.06739,-0.46408 -1.53147,-0.64971c-0.46408,-0.18563 -0.83535,-0.37127 -1.06739,-0.51049c-0.27845,-0.13922 -0.41767,-0.23204 -0.41767,-0.23204c0,0 0.13922,0.04641 0.41767,0.13922c0.27845,0.09282 0.64971,0.23204 1.1138,0.41767c0.46408,0.18563 1.02098,0.37127 1.57788,0.5569c0.5569,0.18563 1.20661,0.37127 1.80992,0.5569c0.64971,0.18563 1.25302,0.32486 1.85633,0.46408c0.60331,0.13922 1.1602,0.23204 1.62429,0.32486c0.46408,0.09282 0.88176,0.13922 1.1602,0.18563c0.27845,0.04641 0.46408,0.04641 0.46408,0.04641c0,0 -0.13922,0.04641 -0.51049,0.04641z" fill="#e0a0a0"/><path d="M215.75716,168.52398c-0.37127,-0.04641 -0.83535,-0.09282 -1.29943,-0.18563c-0.46408,-0.09282 -0.97457,-0.13922 -1.48506,-0.18563c-0.51049,-0.04641 -1.02098,-0.09282 -1.48506,-0.09282c-0.46408,0 -0.92816,0 -1.29943,0.04641c-0.18563,0 -0.37127,0 -0.51049,0.04641c-0.13922,0.04641 -0.27845,0.04641 -0.37127,0.09282c-0.18563,0.04641 -0.32486,0.09282 -0.32486,0.09282c0,0 0.13922,-0.04641 0.32486,-0.13922c0.09282,-0.04641 0.23204,-0.09282 0.37127,-0.13922c0.13922,-0.04641 0.32486,-0.13922 0.51049,-0.13922c0.18563,-0.04641 0.37127,-0.09282 0.60331,-0.09282c0.23204,-0.04641 0.46408,-0.04641 0.69612,-0.04641c0.51049,0 1.02098,0.04641 1.53147,0.09282c0.51049,0.04641 1.02098,0.13922 1.48506,0.23204c0.51049,0.09282 0.92816,0.18563 1.29943,0.27845c0.74253,0.18563 1.20661,0.37127 1.20661,0.37127c0,0 -0.51049,-0.09282 -1.25302,-0.23204z" fill="#e0a0a0"/></g><g><path d="M267.13104,170.79798c2.08837,4.64082 2.36682,10.07058 0.46408,14.34013c-3.85188,8.86397 -18.60969,8.39988 -28.8659,4.08392c-4.31596,-1.80992 -6.2187,-0.51049 -16.10364,-2.22759c-5.80102,-1.02098 -11.97331,-8.67833 -8.53911,-15.8716c3.3878,-7.14686 11.55564,-9.6065 17.82075,-6.12588c7.51813,4.17674 19.76989,0.5569 22.6472,-0.92816c2.64527,-1.39225 10.44184,2.13478 12.57662,6.72919z" fill="#eff4f9"/><path d="M267.5023,172.00459c0,0 1.20661,3.85188 2.36682,4.17674c0,0 -1.1602,-0.09282 -1.48506,-0.92816c0,0 1.53147,1.48506 1.48506,2.73808c0,0 -0.27845,-0.74253 -0.69612,-0.74253c0,0 1.1602,1.90274 -0.41767,3.20217" fill="#eff4f9"/><path d="M239.61098,189.68612c0.64971,0.23204 1.57788,0.5569 2.69168,0.88176c0.5569,0.18563 1.1602,0.37127 1.80992,0.51049c0.64971,0.18563 1.34584,0.32486 2.04196,0.46408c0.74253,0.13922 1.48506,0.23204 2.22759,0.37127c0.78894,0.09282 1.53147,0.18563 2.32041,0.23204c0.37127,0.04641 0.78894,0.04641 1.1602,0.09282c0.41767,0 0.78894,0 1.1602,0c0.18563,0 0.37127,0 0.5569,0c0.18563,-0.04641 0.37127,-0.04641 0.5569,-0.04641c0.37127,0 0.74253,-0.04641 1.1138,-0.04641c0.74253,-0.04641 1.43865,-0.13922 2.08837,-0.23204c0.64971,-0.13922 1.29943,-0.27845 1.85633,-0.37127c0.5569,-0.18563 1.06739,-0.32486 1.53147,-0.46408c0.23204,-0.09282 0.46408,-0.13922 0.64971,-0.23204c0.18563,-0.04641 0.37127,-0.13922 0.51049,-0.18563c0.60331,-0.23204 0.97457,-0.37127 0.97457,-0.37127c0,0 -0.37127,0.13922 -0.97457,0.41767c-0.13922,0.09282 -0.32486,0.13922 -0.51049,0.23204c-0.18563,0.09282 -0.37127,0.18563 -0.60331,0.23204c-0.46408,0.13922 -0.97457,0.32486 -1.53147,0.51049c-0.60331,0.13922 -1.20661,0.27845 -1.85633,0.41767c-0.64971,0.09282 -1.34584,0.18563 -2.08837,0.27845c-0.37127,0 -0.74253,0.04641 -1.1138,0.04641c-0.18563,0.04641 -0.37127,0.04641 -0.5569,0.04641c-0.18563,0 -0.37127,0 -0.5569,0c-0.37127,0 -0.78894,0 -1.1602,0c-0.37127,-0.04641 -0.78894,-0.04641 -1.1602,-0.09282c-0.78894,-0.04641 -1.57788,-0.18563 -2.32041,-0.27845c-0.74253,-0.13922 -1.53147,-0.23204 -2.22759,-0.41767c-0.37127,-0.09282 -0.74253,-0.13922 -1.06739,-0.23204c-0.32486,-0.09282 -0.64971,-0.18563 -0.97457,-0.27845c-0.64971,-0.18563 -1.25302,-0.37127 -1.80992,-0.5569c-1.1138,-0.37127 -1.99555,-0.69612 -2.64527,-0.97457c-0.60331,-0.27845 -0.97457,-0.41767 -0.97457,-0.41767c0,0 0.37127,0.13922 0.88176,0.46408z" fill="#d4dbe7"/><path d="M268.94096,179.66195c0.04641,0.32486 0.09282,0.69612 0.09282,1.1138c0,0.41767 -0.04641,0.83535 -0.09282,1.25302c-0.04641,0.23204 -0.09282,0.46408 -0.13922,0.64971c-0.04641,0.23204 -0.13922,0.41767 -0.18563,0.60331c-0.04641,0.18563 -0.13922,0.37127 -0.18563,0.5569c-0.09282,0.18563 -0.13922,0.32486 -0.23204,0.46408c-0.13922,0.27845 -0.27845,0.51049 -0.37127,0.64971c-0.09282,0.13922 -0.13922,0.23204 -0.13922,0.23204c0,0 0.04641,-0.09282 0.09282,-0.27845c0.04641,-0.09282 0.09282,-0.18563 0.13922,-0.32486c0.04641,-0.13922 0.09282,-0.27845 0.13922,-0.41767c0.09282,-0.13922 0.13922,-0.27845 0.18563,-0.46408c0.04641,-0.18563 0.09282,-0.37127 0.13922,-0.5569c0.04641,-0.18563 0.09282,-0.41767 0.13922,-0.60331c0,-0.18563 0.04641,-0.41767 0.09282,-0.60331c0.09282,-0.41767 0.09282,-0.83535 0.13922,-1.20661c0,-0.37127 0,-0.74253 0,-1.06739c-0.04641,-0.64971 -0.09282,-1.06739 -0.09282,-1.06739c0,0 0.13922,0.41767 0.27845,1.06739z" fill="#d4dbe7"/><path d="M269.03377,179.9868c0.09282,-0.13922 0.18563,-0.32486 0.23204,-0.51049c0.04641,-0.09282 0.04641,-0.18563 0.09282,-0.27845c0.04641,-0.13922 0.04641,-0.23204 0.04641,-0.32486c0,-0.13922 0,-0.23204 0,-0.32486c-0.04641,-0.13922 -0.04641,-0.23204 -0.04641,-0.32486c0,-0.23204 -0.04641,-0.41767 -0.09282,-0.5569c-0.04641,-0.13922 -0.09282,-0.27845 -0.09282,-0.37127c-0.04641,-0.09282 -0.04641,-0.13922 -0.04641,-0.13922c0,0 0.04641,0.04641 0.09282,0.13922c0.04641,0.09282 0.13922,0.23204 0.18563,0.37127c0.04641,0.13922 0.13922,0.32486 0.18563,0.5569c0.04641,0.23204 0.04641,0.46408 0.04641,0.69612c0,0.23204 -0.04641,0.46408 -0.13922,0.64971c-0.09282,0.23204 -0.18563,0.37127 -0.32486,0.51049c-0.23204,0.23204 -0.46408,0.32486 -0.46408,0.32486c0,0 0.18563,-0.13922 0.32486,-0.41767z" fill="#d4dbe7"/><path d="M269.7299,177.7128c-0.04641,-0.18563 -0.13922,-0.41767 -0.23204,-0.64971c-0.13922,-0.23204 -0.23204,-0.46408 -0.32486,-0.64971c-0.04641,-0.09282 -0.04641,-0.18563 -0.09282,-0.23204c-0.04641,-0.04641 -0.04641,-0.09282 -0.04641,-0.09282c0,0 0.13922,0.04641 0.27845,0.18563c0.18563,0.13922 0.37127,0.32486 0.46408,0.60331c0.09282,0.23204 0.13922,0.5569 0.13922,0.74253c0,0.18563 -0.04641,0.32486 -0.04641,0.32486c0,0 -0.04641,-0.13922 -0.13922,-0.23204z" fill="#d4dbe7"/><path d="M269.40504,175.90288c-0.27845,-0.18563 -0.5569,-0.46408 -0.78894,-0.83535c-0.09282,-0.18563 -0.18563,-0.37127 -0.27845,-0.5569c-0.09282,-0.18563 -0.13922,-0.37127 -0.18563,-0.51049c0,-0.13922 -0.04641,-0.27845 -0.04641,-0.37127c0,-0.09282 0,-0.13922 0,-0.13922c0,0 0,0.04641 0.04641,0.13922c0.04641,0.09282 0.09282,0.18563 0.18563,0.32486c0.13922,0.23204 0.32486,0.60331 0.5569,0.92816c0.23204,0.32486 0.46408,0.64971 0.64971,0.88176c0.18563,0.27845 0.32486,0.41767 0.32486,0.41767c0,0 -0.18563,-0.09282 -0.46408,-0.27845z" fill="#d4dbe7"/><path d="M232.51052,165.18259c0.41767,0.13922 1.06739,0.37127 1.80992,0.60331c0.37127,0.13922 0.78894,0.27845 1.20661,0.37127c0.46408,0.13922 0.92816,0.23204 1.39225,0.32486c0.46408,0.09282 0.97457,0.18563 1.48506,0.23204c0.27845,0.04641 0.51049,0.04641 0.78894,0.04641c0.27845,0.04641 0.51049,0.04641 0.78894,0.04641c0.5569,0.04641 1.06739,0 1.57788,0c0.51049,0 1.02098,-0.04641 1.53147,-0.09282c0.97457,-0.04641 1.90274,-0.18563 2.69168,-0.27845c0.78894,-0.13922 1.43865,-0.18563 1.90274,-0.27845c0.46408,-0.04641 0.74253,-0.09282 0.74253,-0.09282c0,0 -0.23204,0.04641 -0.69612,0.13922c-0.46408,0.09282 -1.1138,0.23204 -1.90274,0.37127c-0.78894,0.09282 -1.7171,0.27845 -2.69168,0.37127c-0.51049,0.09282 -1.02098,0.09282 -1.53147,0.13922c-0.51049,0.04641 -1.06739,0.04641 -1.57788,0.04641c-0.27845,0 -0.51049,0 -0.78894,-0.04641c-0.27845,0 -0.51049,0 -0.78894,-0.04641c-0.51049,-0.04641 -1.02098,-0.13922 -1.53147,-0.23204c-0.51049,-0.09282 -0.97457,-0.23204 -1.39225,-0.37127c-0.41767,-0.13922 -0.83535,-0.27845 -1.20661,-0.41767c-0.74253,-0.27845 -1.34584,-0.5569 -1.76351,-0.74253c-0.41767,-0.18563 -0.64971,-0.27845 -0.64971,-0.27845c0,0 0.23204,0.09282 0.60331,0.18563z" fill="#d4dbe7"/></g><g><g><path d="M255.34336,164.30083c-3.48061,1.29943 -6.72919,0.64971 -6.72919,0.64971c2.04196,-0.64971 2.73808,-1.99555 2.73808,-1.99555c-1.99555,0.78894 -3.24857,1.1138 -3.24857,1.1138c3.52702,-2.55245 2.274,-4.31596 6.40433,-6.72919c3.10935,-1.80992 4.78004,-1.85633 4.78004,-1.85633c-2.18119,0.60331 -3.66625,-0.51049 -3.66625,-0.51049c2.18119,-0.51049 4.548,-1.6707 4.548,-1.6707c-2.18119,0.32486 -3.06294,0.27845 -3.06294,0.27845c0,0 1.02098,-1.80992 2.97012,-2.13478c3.01653,-0.46408 4.40878,-1.29943 4.40878,-1.29943c-2.13478,-0.18563 -2.59886,-1.90274 -2.59886,-1.90274c0,0 1.6707,0.37127 4.13033,-0.18563c1.7171,-0.41767 4.03751,-0.32486 4.03751,-0.32486c-1.90274,-0.5569 -3.29498,-1.90274 -3.29498,-1.90274c5.52258,0 9.32805,0.97457 9.32805,0.97457c0,0 -17.26385,16.19646 -20.74446,17.49589z" fill="#fcccba"/><path d="M248.84621,164.81132c0.27845,-0.18563 0.64971,-0.41767 0.97457,-0.69612c0.37127,-0.23204 0.69612,-0.51049 0.97457,-0.69612c0.27845,-0.18563 0.46408,-0.27845 0.46408,-0.27845c0,0 -0.13922,0.18563 -0.37127,0.41767c-0.18563,0.23204 -0.51049,0.51049 -0.88176,0.78894c-0.37127,0.27845 -0.74253,0.46408 -1.06739,0.60331c-0.13922,0.04641 -0.27845,0.09282 -0.37127,0.09282c-0.09282,0 -0.13922,0 -0.13922,0c0,0 0.18563,-0.09282 0.41767,-0.23204z" fill="#e0a0a0"/><path d="M248.61417,163.60471c0.27845,-0.23204 0.64971,-0.60331 1.06739,-1.1138c0.41767,-0.46408 0.83535,-1.06739 1.25302,-1.76351c0.18563,-0.32486 0.37127,-0.69612 0.60331,-1.06739c0.23204,-0.32486 0.51049,-0.69612 0.78894,-1.02098c0.27845,-0.32486 0.60331,-0.60331 0.97457,-0.83535c0.37127,-0.23204 0.69612,-0.46408 1.06739,-0.64971c0.69612,-0.41767 1.39225,-0.69612 1.99555,-0.92816c0.60331,-0.23204 1.1138,-0.41767 1.48506,-0.51049c0.37127,-0.09282 0.5569,-0.13922 0.5569,-0.13922c0,0 -0.23204,0.09282 -0.5569,0.23204c-0.37127,0.13922 -0.83535,0.37127 -1.43865,0.60331c-0.60331,0.27845 -1.25302,0.60331 -1.94914,0.97457c-0.32486,0.18563 -0.69612,0.41767 -1.02098,0.64971c-0.32486,0.23204 -0.60331,0.51049 -0.92816,0.78894c-0.27845,0.27845 -0.51049,0.60331 -0.74253,0.97457c-0.23204,0.37127 -0.41767,0.74253 -0.64971,1.06739c-0.46408,0.69612 -0.92816,1.29943 -1.34584,1.76351c-0.41767,0.51049 -0.83535,0.83535 -1.1138,1.06739c-0.32486,0.23204 -0.51049,0.32486 -0.51049,0.32486c0,0 0.18563,-0.09282 0.46408,-0.41767z" fill="#e0a0a0"/><path d="M256.1787,154.87997c0.41767,-0.18563 1.02098,-0.37127 1.62429,-0.60331c0.60331,-0.23204 1.1602,-0.46408 1.62429,-0.64971c0.23204,-0.09282 0.41767,-0.18563 0.5569,-0.23204c0.09282,-0.04641 0.18563,-0.09282 0.18563,-0.09282c0,0 -0.23204,0.18563 -0.64971,0.41767c-0.41767,0.23204 -0.97457,0.51049 -1.57788,0.74253c-0.60331,0.23204 -1.25302,0.37127 -1.7171,0.46408c-0.46408,0.09282 -0.78894,0.09282 -0.78894,0.09282c0,0 0.32486,-0.04641 0.74253,-0.13922z" fill="#e0a0a0"/><path d="M257.38532,153.25568c0.13922,-0.18563 0.32486,-0.41767 0.60331,-0.69612c0.27845,-0.27845 0.60331,-0.5569 1.06739,-0.78894c0.23204,-0.13922 0.46408,-0.23204 0.74253,-0.27845c0.27845,-0.04641 0.5569,-0.09282 0.78894,-0.13922c0.46408,-0.09282 0.97457,-0.18563 1.43865,-0.32486c0.46408,-0.13922 0.88176,-0.27845 1.25302,-0.37127c0.69612,-0.23204 1.20661,-0.37127 1.20661,-0.37127c0,0 -0.46408,0.23204 -1.20661,0.51049c-0.37127,0.13922 -0.78894,0.27845 -1.25302,0.41767c-0.46408,0.13922 -0.97457,0.27845 -1.48506,0.37127c-0.27845,0.04641 -0.51049,0.09282 -0.74253,0.13922c-0.23204,0.04641 -0.41767,0.13922 -0.64971,0.23204c-0.18563,0.09282 -0.37127,0.18563 -0.5569,0.32486c-0.18563,0.13922 -0.37127,0.23204 -0.51049,0.37127c-0.27845,0.23204 -0.51049,0.46408 -0.69612,0.60331c-0.18563,0.13922 -0.27845,0.23204 -0.27845,0.23204c0,0 0.09282,-0.09282 0.27845,-0.23204z" fill="#e0a0a0"/><path d="M261.97973,148.19719c0.04641,0 0.13922,0.04641 0.23204,0.04641c0.23204,0 0.5569,0 0.92816,0c0.18563,0 0.37127,-0.04641 0.60331,-0.04641c0.23204,-0.04641 0.46408,-0.04641 0.69612,-0.09282c0.23204,-0.04641 0.51049,-0.09282 0.74253,-0.13922c0.23204,-0.04641 0.51049,-0.09282 0.74253,-0.13922c0.46408,-0.09282 0.97457,-0.18563 1.48506,-0.23204c0.51049,-0.04641 0.97457,-0.04641 1.34584,-0.04641c0.37127,0.04641 0.69612,0.04641 0.92816,0.09282c0.23204,0.04641 0.37127,0.04641 0.37127,0.04641c0,0 -0.13922,0 -0.37127,0c-0.23204,0 -0.5569,0 -0.92816,0c-0.37127,0.04641 -0.83535,0.04641 -1.29943,0.13922c-0.46408,0.04641 -0.97457,0.18563 -1.48506,0.27845c-0.23204,0.09282 -0.51049,0.13922 -0.74253,0.18563c-0.23204,0.09282 -0.51049,0.09282 -0.74253,0.13922c-0.51049,0.09282 -0.97457,0.13922 -1.34584,0.09282c-0.37127,0 -0.69612,-0.04641 -0.92816,-0.13922c-0.23204,-0.09282 -0.32486,-0.18563 -0.32486,-0.18563c0,0 0.04641,0 0.09282,0z" fill="#e0a0a0"/><path d="M268.01279,145.83037c0.32486,0 0.74253,0 1.20661,0.04641c0.41767,0.04641 0.92816,0.04641 1.39225,0.09282c0.46408,0.04641 0.92816,0.09282 1.39225,0.13922c0.41767,0.04641 0.83535,0.13922 1.20661,0.18563c0.74253,0.09282 1.20661,0.18563 1.20661,0.18563c0,0 -0.51049,0 -1.20661,-0.04641c-0.32486,-0.04641 -0.74253,-0.04641 -1.20661,-0.09282c-0.41767,0 -0.92816,-0.04641 -1.39225,-0.09282c-0.46408,-0.04641 -0.92816,-0.09282 -1.39225,-0.13922c-0.41767,-0.04641 -0.83535,-0.09282 -1.20661,-0.13922c-0.74253,-0.09282 -1.20661,-0.13922 -1.20661,-0.13922c0,0 0.51049,0 1.20661,0z" fill="#e0a0a0"/></g><path d="M274.78839,162.63014c-0.46408,4.59441 -5.15131,12.4374 -8.44629,15.17548c-3.29498,2.73808 -18.05279,-5.19772 -11.74127,-13.45838c6.31151,-8.26066 17.86716,-15.03626 17.86716,-15.03626c3.43421,-0.92816 2.8309,8.67833 2.32041,13.31915z" fill="#eff4f9"/></g><g><g><path d="M273.34974,149.63584c0,0 -0.97457,-2.50604 2.18119,-5.84743c1.99555,-2.13478 1.7171,-4.73364 2.69168,-4.31596c0.97457,0.41767 3.29498,7.84299 -0.60331,10.44184c-2.36682,1.57788 -3.52702,1.80992 -4.26955,-0.27845z" fill="#dce2ef"/><path d="M278.50105,142.0249c0.04641,0.41767 0.09282,0.92816 0.13922,1.43865c0,0.5569 0,1.1138 -0.04641,1.6707c-0.04641,0.27845 -0.09282,0.5569 -0.13922,0.83535c-0.04641,0.27845 -0.09282,0.5569 -0.18563,0.78894c-0.04641,0.13922 -0.09282,0.23204 -0.13922,0.37127c-0.09282,0.09282 -0.13922,0.23204 -0.18563,0.32486c-0.09282,0.23204 -0.23204,0.41767 -0.37127,0.60331c-0.13922,0.18563 -0.27845,0.32486 -0.41767,0.41767c-0.13922,0.09282 -0.23204,0.18563 -0.37127,0.23204c-0.23204,0.09282 -0.37127,0.13922 -0.37127,0.13922c0,0 0.09282,-0.04641 0.32486,-0.18563c0.09282,-0.04641 0.18563,-0.18563 0.32486,-0.27845c0.13922,-0.09282 0.23204,-0.27845 0.37127,-0.41767c0.13922,-0.13922 0.23204,-0.32486 0.32486,-0.5569c0.09282,-0.23204 0.18563,-0.46408 0.23204,-0.69612c0.09282,-0.27845 0.13922,-0.51049 0.18563,-0.78894c0.04641,-0.23204 0.09282,-0.51049 0.09282,-0.78894c0.04641,-0.5569 0.04641,-1.1138 0.04641,-1.62429c0,-0.23204 0,-0.51049 0,-0.74253c0,-0.23204 -0.04641,-0.46408 -0.04641,-0.64971c-0.04641,-0.41767 -0.04641,-0.78894 -0.09282,-1.02098c-0.04641,-0.23204 -0.04641,-0.37127 -0.04641,-0.37127c0,0 0.13922,0.51049 0.37127,1.29943z" fill="#bcc4d4"/></g><g><path d="M284.20925,152.14189c1.06739,2.08837 7.84299,7.3789 6.54356,11.04515c-0.92816,2.69168 -2.92372,2.32041 -6.54356,1.48506c-0.32486,-0.09282 -2.13478,0.37127 -3.9447,0.32486c-9.79213,-0.23204 -11.60205,-3.48061 -12.62303,-8.12143c-1.02098,-4.64082 1.99555,-9.23523 6.68278,-10.25621c4.59441,-1.02098 7.51813,1.06739 9.88495,5.52258z" fill="#eff4f9"/><path d="M289.26775,162.76936c-0.37127,-0.18563 -0.37127,-1.1138 0.37127,-0.69612c0.74253,0.41767 0.32486,1.02098 -0.37127,0.69612z" fill="#d4dbe7"/><path d="M281.17765,156.83274c-0.3332,-0.002 -0.59993,-0.56462 -0.59577,-1.25665c0.00416,-0.69202 0.27764,-1.2514 0.61084,-1.24939c0.3332,0.002 0.59993,0.56462 0.59577,1.25665c-0.00416,0.69202 -0.27764,1.2514 -0.61084,1.24939z" fill="#9098a4"/><path d="M281.0999,154.5087c0.09282,-0.09282 0.18563,-0.23204 0.27845,-0.37127c0.09282,-0.13922 0.18563,-0.27845 0.27845,-0.37127c0.09282,-0.09282 0.13922,-0.18563 0.13922,-0.18563c0,0 0,0.09282 0,0.23204c-0.04641,0.13922 -0.09282,0.32486 -0.23204,0.46408c-0.13922,0.13922 -0.27845,0.27845 -0.41767,0.32486c-0.13922,0.04641 -0.23204,0.04641 -0.23204,0.04641c0,0 0.04641,-0.04641 0.18563,-0.13922z" fill="#9098a4"/><path d="M289.03571,162.35169c0.04641,0.13922 0.09282,0.27845 0.18563,0.32486c0.09282,0.04641 0.18563,0.09282 0.32486,0.13922c0.13922,0 0.23204,0.04641 0.23204,0.04641c0,0 -0.04641,0.04641 -0.18563,0.09282c-0.04641,0 -0.13922,0 -0.23204,0c-0.09282,0 -0.18563,-0.04641 -0.27845,-0.13922c-0.13922,-0.13922 -0.18563,-0.37127 -0.13922,-0.51049c0.04641,-0.13922 0.09282,-0.23204 0.09282,-0.23204c0,0 0.04641,0.09282 0,0.27845z" fill="#bcc4d4"/><path d="M288.71085,164.90414c-0.37127,-0.09282 -0.83535,-0.18563 -1.29943,-0.32486c-0.46408,-0.13922 -0.92816,-0.27845 -1.25302,-0.32486c-0.18563,-0.04641 -0.32486,-0.09282 -0.41767,-0.13922c-0.09282,-0.04641 -0.13922,-0.04641 -0.13922,-0.04641c0,0 0.23204,-0.04641 0.60331,0c0.37127,0 0.83535,0.09282 1.29943,0.23204c0.46408,0.13922 0.92816,0.32486 1.25302,0.46408c0.32486,0.13922 0.5569,0.27845 0.5569,0.27845c0,0 -0.27845,-0.04641 -0.60331,-0.13922z" fill="#bcc4d4"/><path d="M279.10435,165.13618c-0.37127,0 -0.78894,0 -1.20661,0c-0.41767,-0.04641 -0.88176,-0.04641 -1.34584,-0.09282c-0.46408,-0.04641 -0.92816,-0.13922 -1.34584,-0.23204c-0.41767,-0.09282 -0.78894,-0.23204 -1.1138,-0.37127c-0.13922,-0.04641 -0.27845,-0.13922 -0.41767,-0.18563c-0.13922,-0.09282 -0.23204,-0.13922 -0.32486,-0.18563c-0.18563,-0.13922 -0.27845,-0.18563 -0.27845,-0.18563c0,0 0.09282,0 0.27845,0.09282c0.18563,0.09282 0.46408,0.18563 0.78894,0.27845c0.32486,0.09282 0.69612,0.18563 1.1138,0.27845c0.41767,0.09282 0.88176,0.13922 1.34584,0.18563c0.46408,0.04641 0.92816,0.09282 1.34584,0.09282c0.41767,0.04641 0.83535,0.09282 1.1602,0.09282c0.69612,0.04641 1.1602,0.09282 1.1602,0.09282c0,0 -0.46408,0.04641 -1.1602,0.13922z" fill="#d4dbe7"/></g><g><path d="M276.69113,145.4591c0,0 3.15576,-0.69612 5.15131,1.25302c1.99555,1.94914 3.3878,1.29943 3.3878,1.29943c0,0 -1.85633,1.1138 -2.87731,0.27845c0,0 2.55245,1.1138 2.78449,3.24857l-1.34584,-1.1602c0,0 1.57788,1.80992 0.78894,2.87731c0,0 -1.1602,-2.45963 -2.50604,-3.15576c0,0 0.74253,1.20661 0.83535,1.6707c0,0 -3.52702,-0.37127 -4.64082,-3.01653c-1.1138,-2.64527 -2.64527,-1.85633 -2.64527,-1.85633c0,0 -0.5569,-0.92816 1.06739,-1.43865z" fill="#fcccba"/><path d="M282.16729,151.77062c-0.18563,0 -0.41767,-0.04641 -0.69612,-0.13922c-0.27845,-0.09282 -0.51049,-0.18563 -0.78894,-0.27845c-0.27845,-0.13922 -0.51049,-0.27845 -0.74253,-0.41767c-0.23204,-0.13922 -0.41767,-0.32486 -0.5569,-0.46408c-0.13922,-0.18563 -0.27845,-0.32486 -0.32486,-0.41767c-0.04641,-0.13922 -0.09282,-0.18563 -0.09282,-0.18563c0,0 0.04641,0.04641 0.13922,0.13922c0.04641,0.09282 0.23204,0.18563 0.37127,0.32486c0.09282,0.04641 0.18563,0.13922 0.27845,0.18563c0.09282,0.04641 0.23204,0.13922 0.32486,0.18563c0.18563,0.13922 0.46408,0.27845 0.69612,0.37127c0.51049,0.18563 1.02098,0.37127 1.43865,0.51049c0.37127,0.13922 0.64971,0.23204 0.64971,0.23204c0,0 -0.27845,0 -0.69612,-0.04641z" fill="#e0a0a0"/><path d="M282.63138,150.47119c0.13922,0.09282 0.32486,0.23204 0.51049,0.41767c0.18563,0.13922 0.32486,0.37127 0.51049,0.5569c0.13922,0.23204 0.27845,0.41767 0.41767,0.64971c0.09282,0.23204 0.18563,0.41767 0.27845,0.60331c0.04641,0.18563 0.09282,0.37127 0.13922,0.46408c0.04641,0.13922 0.04641,0.18563 0.04641,0.18563c0,0 -0.04641,-0.04641 -0.09282,-0.13922c-0.09282,-0.09282 -0.18563,-0.23204 -0.27845,-0.37127c-0.09282,-0.18563 -0.23204,-0.37127 -0.37127,-0.5569c-0.13922,-0.18563 -0.27845,-0.41767 -0.41767,-0.60331c-0.27845,-0.41767 -0.60331,-0.78894 -0.88176,-1.06739c-0.27845,-0.27845 -0.46408,-0.46408 -0.46408,-0.46408c0,0 0.23204,0.09282 0.60331,0.32486z" fill="#e0a0a0"/><path d="M284.85897,150.74964c-0.09282,-0.18563 -0.23204,-0.41767 -0.37127,-0.64971c-0.04641,-0.09282 -0.13922,-0.23204 -0.23204,-0.32486c-0.09282,-0.09282 -0.18563,-0.23204 -0.27845,-0.32486c-0.18563,-0.18563 -0.41767,-0.37127 -0.64971,-0.5569c-0.09282,-0.09282 -0.23204,-0.13922 -0.32486,-0.23204c-0.13922,-0.09282 -0.23204,-0.13922 -0.32486,-0.18563c-0.18563,-0.09282 -0.32486,-0.18563 -0.46408,-0.23204c-0.13922,-0.04641 -0.18563,-0.09282 -0.18563,-0.09282c0,0 0.04641,0 0.18563,0.04641c0.13922,0.04641 0.32486,0.04641 0.5569,0.13922c0.23204,0.04641 0.51049,0.18563 0.74253,0.32486c0.13922,0.09282 0.23204,0.18563 0.37127,0.27845c0.13922,0.09282 0.23204,0.23204 0.37127,0.32486c0.23204,0.23204 0.41767,0.46408 0.5569,0.74253c0.13922,0.23204 0.23204,0.51049 0.27845,0.74253c0.09282,0.46408 0.04641,0.78894 0.04641,0.78894c0,0 -0.04641,-0.32486 -0.27845,-0.78894z" fill="#e0a0a0"/><path d="M284.95179,148.05796c-0.13922,0.04641 -0.41767,0.09282 -0.69612,0.09282c-0.32486,0 -0.69612,-0.09282 -1.02098,-0.23204c-0.18563,-0.09282 -0.37127,-0.18563 -0.51049,-0.27845c-0.18563,-0.13922 -0.32486,-0.23204 -0.46408,-0.37127c-0.60331,-0.46408 -1.1602,-1.02098 -1.62429,-1.34584c-0.23204,-0.13922 -0.41767,-0.23204 -0.60331,-0.27845c-0.18563,-0.04641 -0.27845,-0.04641 -0.27845,-0.04641c0,0 0.04641,0 0.09282,0c0.04641,0 0.09282,0 0.18563,0c0.18563,0 0.41767,0.04641 0.69612,0.18563c0.5569,0.23204 1.1138,0.78894 1.7171,1.25302c0.13922,0.13922 0.32486,0.27845 0.46408,0.37127c0.13922,0.09282 0.32486,0.18563 0.46408,0.27845c0.13922,0.09282 0.32486,0.13922 0.46408,0.18563c0.13922,0.04641 0.27845,0.04641 0.41767,0.09282c0.27845,0.04641 0.51049,0.04641 0.69612,0.04641c0.18563,0 0.27845,-0.04641 0.27845,-0.04641c0,0 -0.09282,0.04641 -0.27845,0.09282z" fill="#e0a0a0"/><path d="M277.94415,147.26902c-0.78894,-0.18563 -0.23204,-1.34584 0.69612,-1.43865c0,0 -0.27845,-0.83535 0.83535,-1.39225c0,0 0.09282,-1.20661 0.88176,-1.34584c0,0 -0.18563,-0.83535 0.88176,-1.20661c0,0 0.09282,-0.69612 0.88176,-0.97457c0,0 0.51049,-0.83535 1.02098,-1.02098c0.46408,-0.23204 -0.23204,0.97457 -0.23204,0.97457c0,0 -0.04641,0.92816 -0.5569,1.06739c0,0 0.32486,0.5569 -0.69612,1.25302c0,0 0.27845,0.69612 -0.83535,1.29943c0,0 0.60331,0.27845 -0.60331,1.43865c0,0 0.13922,1.34584 -0.88176,1.34584c-0.92816,0 -1.25302,0 -1.39225,0z" fill="#eff4f9"/><g><path d="M277.52647,145.9696c0,0 2.13478,1.25302 3.52702,1.53147c0,0 -2.04196,1.02098 -3.34139,-0.04641c-0.37127,-0.37127 -0.78894,-0.37127 -0.18563,-1.48506z" fill="#fcccba"/><path d="M277.80492,146.15523c0.32486,0.09282 0.74253,0.23204 1.1602,0.41767c0.41767,0.18563 0.78894,0.37127 1.06739,0.60331c0.23204,0.23204 0.37127,0.41767 0.37127,0.41767c0,0 -0.04641,-0.04641 -0.13922,-0.09282c-0.09282,-0.04641 -0.23204,-0.09282 -0.37127,-0.18563c-0.27845,-0.13922 -0.64971,-0.32486 -1.06739,-0.51049c-0.37127,-0.18563 -0.78894,-0.37127 -1.06739,-0.51049c-0.27845,-0.18563 -0.46408,-0.27845 -0.46408,-0.27845c0,0 0.23204,0 0.51049,0.13922z" fill="#e0a0a0"/></g></g><g><path d="M269.59067,149.91429c0,0 -0.97457,-2.50604 2.18119,-5.84743c1.99555,-2.08837 1.6707,-4.68723 2.69168,-4.31596c0.97457,0.41767 3.29498,7.84299 -0.60331,10.44184c-2.41323,1.53147 -3.57343,1.76351 -4.26955,-0.27845z" fill="#eff4f9"/><path d="M274.69557,142.25694c0.04641,0.41767 0.09282,0.92816 0.13922,1.43865c0,0.5569 0,1.1138 -0.04641,1.6707c-0.04641,0.27845 -0.09282,0.5569 -0.13922,0.83535c-0.04641,0.27845 -0.09282,0.5569 -0.18563,0.78894c-0.04641,0.13922 -0.09282,0.23204 -0.13922,0.37127c-0.09282,0.09282 -0.13922,0.23204 -0.18563,0.32486c-0.09282,0.23204 -0.23204,0.41767 -0.37127,0.60331c-0.13922,0.18563 -0.27845,0.32486 -0.41767,0.41767c-0.13922,0.09282 -0.23204,0.18563 -0.37127,0.23204c-0.23204,0.09282 -0.37127,0.13922 -0.37127,0.13922c0,0 0.09282,-0.04641 0.32486,-0.18563c0.09282,-0.04641 0.18563,-0.18563 0.32486,-0.27845c0.13922,-0.09282 0.23204,-0.27845 0.37127,-0.41767c0.13922,-0.13922 0.23204,-0.32486 0.32486,-0.5569c0.09282,-0.23204 0.18563,-0.46408 0.23204,-0.69612c0.09282,-0.27845 0.13922,-0.51049 0.18563,-0.78894c0.04641,-0.23204 0.09282,-0.51049 0.09282,-0.78894c0.04641,-0.5569 0.04641,-1.1138 0.04641,-1.62429c0,-0.23204 0,-0.51049 0,-0.74253c0,-0.23204 -0.04641,-0.46408 -0.04641,-0.64971c-0.04641,-0.41767 -0.04641,-0.74253 -0.09282,-1.02098c-0.04641,-0.23204 -0.04641,-0.37127 -0.04641,-0.37127c0,0 0.18563,0.5569 0.37127,1.29943z" fill="#d4dbe7"/></g></g><g><path d="M230.23652,191.72808c-8.26066,6.2187 -18.79532,4.548 -18.79532,4.548c0,0 2.41323,8.39988 1.1138,11.64846c-1.48506,3.75906 -2.22759,0.04641 -2.50604,-0.92816c-0.41767,-1.39225 -1.1138,-2.92372 -0.78894,-3.43421c1.06739,-1.7171 -3.9447,-11.04515 0.32486,-12.53021c2.41323,-0.83535 7.9358,-0.69612 5.70821,-6.31151c-3.80547,-9.56009 4.59441,-18.88814 11.55564,-14.01528c7.00764,4.82645 7.3325,18.05279 3.3878,21.02291z" fill="#eff4f9"/><path d="M216.5461,196.41531c0.37127,-0.04641 0.78894,-0.09282 1.29943,-0.13922c0.51049,-0.04641 1.06739,-0.13922 1.6707,-0.23204c0.60331,-0.09282 1.25302,-0.18563 1.94914,-0.37127c0.32486,-0.09282 0.64971,-0.18563 1.02098,-0.27845c0.32486,-0.09282 0.69612,-0.18563 1.06739,-0.32486c0.37127,-0.13922 0.74253,-0.23204 1.1138,-0.37127c0.37127,-0.13922 0.74253,-0.27845 1.1138,-0.41767c0.74253,-0.32486 1.48506,-0.69612 2.18119,-1.06739c0.69612,-0.41767 1.39225,-0.83535 1.99555,-1.34584c0.27845,-0.23204 0.60331,-0.51049 0.83535,-0.78894c0.27845,-0.32486 0.51049,-0.60331 0.69612,-0.92816c0.78894,-1.29943 1.02098,-2.73808 1.1138,-3.9447c0.09282,-1.25302 0.09282,-2.274 0.09282,-2.97012c0,-0.69612 0,-1.1138 0,-1.1138c0,0 0,0.41767 0.04641,1.1138c0,0.74253 0.04641,1.76351 0,2.97012c-0.04641,0.64971 -0.13922,1.29943 -0.27845,1.99555c-0.18563,0.69612 -0.41767,1.43865 -0.83535,2.08837c-0.18563,0.37127 -0.41767,0.69612 -0.69612,0.97457c-0.27845,0.27845 -0.5569,0.5569 -0.88176,0.83535c-0.64971,0.51049 -1.29943,0.97457 -2.04196,1.39225c-0.74253,0.37127 -1.48506,0.74253 -2.22759,1.02098c-0.37127,0.13922 -0.74253,0.27845 -1.1138,0.41767c-0.37127,0.13922 -0.74253,0.27845 -1.1138,0.37127c-0.37127,0.09282 -0.74253,0.18563 -1.1138,0.27845c-0.37127,0.09282 -0.74253,0.18563 -1.06739,0.23204c-0.69612,0.13922 -1.34584,0.23204 -1.94914,0.32486c-0.60331,0.09282 -1.1602,0.13922 -1.6707,0.18563c-0.51049,0.04641 -0.92816,0.09282 -1.29943,0.09282c-0.69612,0.04641 -1.1138,0.04641 -1.1138,0.04641c0,0 0.41767,-0.04641 1.20661,-0.04641z" fill="#d4dbe7"/><path d="M208.28544,197.71473c-0.04641,-0.32486 -0.13922,-0.69612 -0.23204,-1.1602c-0.09282,-0.41767 -0.13922,-0.97457 -0.18563,-1.53147c-0.04641,-0.5569 -0.04641,-1.20661 0.09282,-1.85633c0.09282,-0.64971 0.37127,-1.34584 0.92816,-1.85633c0.32486,-0.18563 0.64971,-0.27845 1.02098,-0.37127c0.32486,-0.09282 0.69612,-0.18563 1.06739,-0.27845c0.74253,-0.18563 1.48506,-0.32486 2.18119,-0.60331c0.37127,-0.13922 0.69612,-0.27845 0.97457,-0.51049c0.27845,-0.23204 0.5569,-0.46408 0.78894,-0.74253c0.46408,-0.5569 0.69612,-1.25302 0.69612,-1.94914c0,-0.69612 -0.13922,-1.39225 -0.32486,-1.99555c-0.18563,-0.60331 -0.37127,-1.20661 -0.51049,-1.76351c-0.27845,-1.06739 -0.46408,-2.04196 -0.5569,-2.69168c-0.09282,-0.64971 -0.09282,-1.02098 -0.09282,-1.02098c0,0 0.04641,0.37127 0.18563,1.02098c0.13922,0.64971 0.37127,1.57788 0.69612,2.64527c0.18563,0.5569 0.37127,1.1138 0.5569,1.76351c0.18563,0.60331 0.37127,1.29943 0.37127,2.04196c0.04641,0.74253 -0.23204,1.53147 -0.74253,2.13478c-0.23204,0.27845 -0.5569,0.5569 -0.83535,0.78894c-0.32486,0.27845 -0.69612,0.41767 -1.06739,0.5569c-0.74253,0.27845 -1.48506,0.41767 -2.22759,0.5569c-0.32486,0.09282 -0.69612,0.13922 -1.06739,0.23204c-0.32486,0.09282 -0.69612,0.13922 -0.97457,0.32486c-0.23204,0.18563 -0.46408,0.51049 -0.60331,0.78894c-0.13922,0.27845 -0.27845,0.60331 -0.32486,0.92816c-0.13922,0.60331 -0.18563,1.25302 -0.13922,1.80992c0,0.5569 0.04641,1.06739 0.13922,1.53147c0.09282,0.41767 0.18563,0.83535 0.23204,1.1602c0.13922,0.64971 0.23204,1.02098 0.23204,1.02098c0,0 -0.13922,-0.37127 -0.27845,-0.97457z" fill="#d4dbe7"/></g><g><path d="M209.02798,206.62511c0.5569,0.88176 1.48506,2.41323 2.50604,3.52702c-0.92816,1.02098 -2.32041,1.85633 -2.32041,1.85633c-0.97457,-0.92816 -1.29943,-2.78449 -1.57788,-4.03751c0,0 0.78894,-0.5569 1.39225,-1.34584z" fill="#bcc4d4"/><path d="M211.9981,209.31678c-0.69612,0.97457 -0.46408,1.94914 -0.46408,1.94914c-0.74253,-0.60331 -0.23204,-1.53147 -0.23204,-1.53147c-0.27845,0.74253 -1.1602,0.92816 -1.1602,0.92816c0.51049,-0.27845 0.37127,-1.1138 0.37127,-1.1138c-0.32486,0.41767 -1.06739,0.37127 -1.06739,0.37127c0.74253,-0.41767 0.83535,-1.48506 0.83535,-1.48506c-0.46408,-0.04641 -1.25302,0.74253 -1.25302,0.74253c-0.27845,-0.46408 0.41767,-1.25302 0.41767,-1.25302c-0.46408,-0.04641 -1.06739,0.46408 -1.06739,0.46408c-0.32486,-0.60331 0.32486,-1.1602 0.32486,-1.1602c-0.69612,0.23204 -1.20661,-0.23204 -1.20661,-0.23204c1.06739,-0.04641 2.8309,-1.29943 2.8309,-1.29943" fill="#eff4f9"/></g><g><path d="M237.80106,213.53993c0.09282,0.88176 0.27845,2.13478 1.39225,3.15576c-0.69612,0.23204 -0.18563,1.48506 -3.89829,2.50604c0,0 -0.13922,-5.05849 0.83535,-5.6618c0,0 1.1138,0 1.6707,0z" fill="#bcc4d4"/><path d="M240.91041,215.99956c-0.88176,0.5569 -2.59886,2.50604 -2.59886,2.50604c-0.23204,-0.51049 -0.18563,-1.02098 -0.18563,-1.02098c-0.46408,0.46408 -1.06739,0.41767 -1.06739,0.41767c0.04641,-0.83535 1.06739,-1.6707 1.06739,-1.6707c-0.60331,0.27845 -1.1602,0.5569 -1.1602,0.5569c0.09282,-0.74253 0.5569,-1.29943 0.5569,-1.29943c-0.83535,-0.04641 -1.25302,0.37127 -1.25302,0.37127c0.13922,-1.34584 1.80992,-1.34584 1.80992,-1.34584c-0.97457,-0.23204 -1.85633,-0.23204 -1.85633,-0.23204c0.18563,-0.83535 1.20661,-0.51049 1.20661,-0.51049c-1.1138,-0.23204 -1.20661,-1.1138 -1.20661,-1.1138c0.32486,0.64971 2.92372,0.83535 2.92372,0.83535" fill="#eff4f9"/></g><g><path d="M263.37197,180.91497c-0.88176,2.73808 -5.01209,12.94789 -10.99874,15.08266c0,0 -0.51049,8.16784 -0.88176,9.18882c-0.46408,1.1602 -6.54356,8.39988 -7.14686,9.32805c-0.74253,1.1602 -4.45519,2.04196 -4.45519,2.04196l-1.94914,-3.24857c0,0 0.97457,-0.78894 2.45963,-1.48506c2.04196,-0.97457 5.01209,-5.29053 5.6618,-9.18882c0,0 -4.73364,-10.48825 -3.01653,-12.11254c3.06294,-2.92372 6.26511,-9.23523 6.26511,-9.23523" fill="#eff4f9"/><path d="M243.04518,194.28053c-0.09282,-0.27845 -0.23204,-0.64971 -0.32486,-1.02098c-0.13922,-0.37127 -0.23204,-0.78894 -0.27845,-1.20661c-0.04641,-0.41767 0,-0.92816 0.23204,-1.34584c0.23204,-0.41767 0.5569,-0.74253 0.88176,-1.06739c0.60331,-0.64971 1.20661,-1.34584 1.7171,-1.99555c0.51049,-0.64971 0.97457,-1.25302 1.39225,-1.80992c0.78894,-1.06739 1.34584,-1.76351 1.34584,-1.76351c0,0 -0.46408,0.78894 -1.20661,1.90274c-0.37127,0.5569 -0.83535,1.20661 -1.34584,1.85633c-0.51049,0.69612 -1.06739,1.39225 -1.7171,2.04196c-0.27845,0.32486 -0.64971,0.60331 -0.83535,0.97457c-0.18563,0.32486 -0.23204,0.74253 -0.18563,1.1602c0.09282,0.83535 0.32486,1.57788 0.46408,2.22759c0.32486,1.29943 0.46408,2.18119 0.46408,2.18119c0,0 -0.27845,-0.88176 -0.60331,-2.13478z" fill="#d4dbe7"/><path d="M253.85829,195.02306c0.46408,-0.32486 0.97457,-0.74253 1.48506,-1.20661c0.51049,-0.46408 1.06739,-0.97457 1.57788,-1.48506c0.27845,-0.23204 0.5569,-0.51049 0.78894,-0.78894c0.23204,-0.27845 0.46408,-0.51049 0.69612,-0.78894c0.23204,-0.23204 0.46408,-0.51049 0.64971,-0.74253c0.18563,-0.23204 0.37127,-0.46408 0.5569,-0.69612c0.18563,-0.23204 0.32486,-0.41767 0.46408,-0.60331c0.09282,-0.18563 0.23204,-0.32486 0.32486,-0.46408c0.23204,-0.27845 0.32486,-0.41767 0.32486,-0.41767c0,0 -0.09282,0.18563 -0.23204,0.46408c-0.13922,0.27845 -0.37127,0.69612 -0.69612,1.1602c-0.13922,0.23204 -0.32486,0.51049 -0.51049,0.74253c-0.18563,0.23204 -0.37127,0.51049 -0.60331,0.78894c-0.23204,0.27845 -0.46408,0.5569 -0.69612,0.83535c-0.27845,0.23204 -0.51049,0.51049 -0.78894,0.78894c-0.51049,0.5569 -1.06739,1.02098 -1.62429,1.48506c-0.27845,0.23204 -0.5569,0.41767 -0.78894,0.60331c-0.27845,0.18563 -0.51049,0.37127 -0.74253,0.51049c-0.92816,0.60331 -1.62429,0.92816 -1.62429,0.92816c0,0 0.60331,-0.41767 1.43865,-1.1138z" fill="#d4dbe7"/></g></g></g></svg>