<svg version="1.1" xmlns="http://www.w3.org/2000/svg" xmlns:xlink="http://www.w3.org/1999/xlink" width="2.39459" height="2.60281" viewBox="0,0,2.39459,2.60281"><g transform="translate(-238.80271,-178.69859)"><g data-paper-data="{&quot;isPaintingLayer&quot;:true}" fill-rule="nonzero" stroke="none" stroke-linecap="butt" stroke-linejoin="miter" stroke-miterlimit="10" stroke-dasharray="" stroke-dashoffset="0" style="mix-blend-mode: normal"><path d="M240.78064,180.1139c0,0.17498 -0.12247,0.22749 -0.19597,0.24324c-0.00862,0.06166 -0.04332,0.12852 -0.13743,0.17557c-0.09542,0.04771 -0.17048,0.03434 -0.22518,0.00333c0.00287,0.01516 0.00438,0.03081 0.00438,0.04681c0,0.13807 -0.11193,0.25 -0.25,0.25c-0.13807,0 -0.25,-0.11193 -0.25,-0.25c0,-0.09828 0.05672,-0.18332 0.1392,-0.22417c-1.60559,-0.09278 -0.3726,-1.38387 0.46,-0.49479h0.20502c0,0 0.25,0 0.25,0.25z" fill="#9966ff" stroke-width="0.5"/><path d="M241.19729,180c0,0.71875 -0.53605,1.30141 -1.19729,1.30141c-0.66125,0 -1.19729,-0.58266 -1.19729,-1.30141c0,-0.71875 0.53605,-1.30141 1.19729,-1.30141c0.66125,0 1.19729,0.58266 1.19729,1.30141z" fill="#ff9c00" stroke-width="0"/><path d="M240.78084,180c0,0.48515 -0.3496,0.87845 -0.78084,0.87845c-0.43125,0 -0.78084,-0.3933 -0.78084,-0.87845c0,-0.48515 0.3496,-0.87845 0.78084,-0.87845c0.43125,0 0.78084,0.3933 0.78084,0.87845z" fill="#ff00b9" stroke-width="0"/></g></g></svg>